<?xml version="1.0" standalone="no"?>
<!DOCTYPE svg PUBLIC "-//W3C//DTD SVG 20010904//EN"
 "http://www.w3.org/TR/2001/REC-SVG-20010904/DTD/svg10.dtd">
<svg version="1.0" xmlns="http://www.w3.org/2000/svg"
 width="75.000000pt" height="75.000000pt" viewBox="0 0 75.000000 75.000000"
 preserveAspectRatio="xMidYMid meet">
<metadata>
Created by potrace 1.14, written by Peter Selinger 2001-2017
</metadata>
<g transform="translate(0.000000,75.000000) scale(0.100000,-0.100000)"
fill="#000000" stroke="none">
<path d="M224 712 c-95 -34 -173 -115 -207 -215 -25 -76 -18 -208 15 -277 100
-210 363 -262 537 -105 22 21 55 67 73 103 28 57 33 78 34 149 2 78 4 85 33
118 25 29 31 45 31 80 0 76 -55 107 -120 69 -27 -16 -29 -16 -56 10 -82 78
-230 108 -340 68z m151 -10 c-2 -3 -27 -5 -55 -6 -30 -2 -45 1 -38 6 13 8 102
8 93 0z m56 -42 c36 -10 129 -66 129 -79 0 -3 -38 -44 -84 -90 l-85 -84 -51
46 c-36 33 -58 45 -73 43 -12 -3 -25 -5 -29 -5 -4 -1 -16 -10 -26 -22 -15 -15
-19 -32 -17 -66 2 -41 9 -52 71 -115 77 -79 118 -102 149 -86 11 6 68 58 128
116 l107 107 0 -50 c0 -98 -85 -223 -178 -263 -186 -80 -387 15 -436 206 -31
122 38 258 164 322 71 36 145 42 231 20z m276 -87 c7 -17 -279 -309 -310 -317
-15 -4 -40 14 -99 71 -74 73 -77 77 -61 95 23 25 48 15 105 -40 l48 -46 133
132 c112 110 136 130 156 125 12 -3 25 -12 28 -20z m-357 -523 c0 -5 -2 -10
-4 -10 -3 0 -8 5 -11 10 -3 6 -1 10 4 10 6 0 11 -4 11 -10z"/>
</g>
</svg>
