<svg xmlns="http://www.w3.org/2000/svg" xmlns:xlink="http://www.w3.org/1999/xlink" width="409" zoomAndPan="magnify" viewBox="0 0 306.75 83.999999" height="112" preserveAspectRatio="xMidYMid meet" version="1.0"><defs><g/><clipPath id="fe2df58df9"><path d="M 0 16.578125 L 56 16.578125 L 56 67.539062 L 0 67.539062 Z M 0 16.578125 " clip-rule="nonzero"/></clipPath><clipPath id="3c2810c09b"><path d="M 0 14.144531 L 56 14.144531 L 56 65 L 0 65 Z M 0 14.144531 " clip-rule="nonzero"/></clipPath></defs><g clip-path="url(#fe2df58df9)"><path fill="#f1efe7" d="M 50.183594 22.488281 C 48.746094 22.488281 47.402344 23.046875 46.390625 24.054688 L 44.824219 25.621094 C 39.972656 19.847656 32.949219 16.554688 25.378906 16.554688 C 11.386719 16.554688 0 27.945312 0 41.949219 C 0 55.949219 11.386719 67.34375 25.378906 67.34375 C 39.375 67.34375 50.773438 55.949219 50.773438 41.949219 C 50.773438 39.816406 50.496094 37.703125 49.96875 35.652344 L 53.976562 31.640625 C 56.066406 29.550781 56.066406 26.148438 53.976562 24.054688 C 52.964844 23.046875 51.617188 22.488281 50.183594 22.488281 Z M 48.4375 37.191406 C 48.761719 38.75 48.921875 40.34375 48.921875 41.949219 C 48.921875 54.929688 38.359375 65.492188 25.378906 65.492188 C 12.398438 65.492188 1.851562 54.929688 1.851562 41.949219 C 1.851562 28.96875 12.40625 18.40625 25.378906 18.40625 C 32.453125 18.40625 39.015625 21.5 43.515625 26.925781 L 29.164062 41.265625 L 23.722656 35.820312 C 21.632812 33.730469 18.234375 33.734375 16.148438 35.820312 C 15.117188 36.847656 14.554688 38.207031 14.558594 39.644531 C 14.566406 41.066406 15.132812 42.402344 16.148438 43.40625 L 25.386719 52.65625 C 26.414062 53.671875 27.757812 54.230469 29.164062 54.230469 C 30.574219 54.230469 31.925781 53.671875 32.980469 52.652344 Z M 52.667969 30.332031 L 31.683594 51.332031 C 30.996094 51.996094 30.078125 52.378906 29.167969 52.378906 C 28.246094 52.378906 27.367188 52.007812 26.691406 51.339844 L 17.453125 42.089844 C 16.785156 41.433594 16.414062 40.5625 16.410156 39.636719 C 16.40625 38.695312 16.777344 37.804688 17.457031 37.128906 C 17.96875 36.617188 18.601562 36.296875 19.265625 36.167969 C 19.902344 36.046875 20.566406 36.105469 21.175781 36.335938 C 21.203125 36.347656 21.226562 36.351562 21.253906 36.359375 C 21.425781 36.429688 21.589844 36.523438 21.753906 36.621094 C 21.789062 36.644531 21.828125 36.65625 21.863281 36.679688 C 22.054688 36.808594 22.242188 36.957031 22.410156 37.128906 L 28.511719 43.226562 C 28.859375 43.574219 29.472656 43.574219 29.820312 43.226562 L 45.410156 27.652344 C 45.410156 27.652344 45.410156 27.648438 45.414062 27.648438 L 47.699219 25.363281 C 49.019531 24.039062 51.34375 24.039062 52.667969 25.363281 C 54.035156 26.730469 54.035156 28.960938 52.667969 30.332031 Z M 52.667969 30.332031 " fill-opacity="1" fill-rule="nonzero"/></g><g clip-path="url(#3c2810c09b)"><path fill="#ff914d" d="M 50.183594 20.050781 C 48.746094 20.050781 47.402344 20.609375 46.390625 21.621094 L 44.824219 23.183594 C 39.972656 17.414062 32.949219 14.117188 25.378906 14.117188 C 11.386719 14.117188 0 25.511719 0 39.511719 C 0 53.515625 11.386719 64.90625 25.378906 64.90625 C 39.375 64.90625 50.773438 53.515625 50.773438 39.511719 C 50.773438 37.382812 50.496094 35.269531 49.96875 33.214844 L 53.976562 29.207031 C 56.066406 27.117188 56.066406 23.710938 53.976562 21.621094 C 52.964844 20.609375 51.617188 20.050781 50.183594 20.050781 Z M 48.4375 34.757812 C 48.761719 36.316406 48.921875 37.910156 48.921875 39.511719 C 48.921875 52.496094 38.359375 63.054688 25.378906 63.054688 C 12.398438 63.054688 1.851562 52.496094 1.851562 39.511719 C 1.851562 26.53125 12.40625 15.96875 25.378906 15.96875 C 32.453125 15.96875 39.015625 19.066406 43.515625 24.492188 L 29.164062 38.828125 L 23.722656 33.382812 C 21.632812 31.296875 18.234375 31.296875 16.148438 33.382812 C 15.117188 34.414062 14.554688 35.773438 14.558594 37.207031 C 14.566406 38.632812 15.132812 39.96875 16.148438 40.96875 L 25.386719 50.21875 C 26.414062 51.234375 27.757812 51.792969 29.164062 51.792969 C 30.574219 51.792969 31.925781 51.238281 32.980469 50.214844 Z M 52.667969 27.898438 L 31.683594 48.894531 C 30.996094 49.5625 30.078125 49.941406 29.167969 49.941406 C 28.246094 49.941406 27.367188 49.574219 26.691406 48.90625 L 17.453125 39.65625 C 16.785156 39 16.414062 38.125 16.410156 37.199219 C 16.40625 36.261719 16.777344 35.371094 17.457031 34.691406 C 17.96875 34.179688 18.601562 33.859375 19.265625 33.734375 C 19.902344 33.609375 20.566406 33.671875 21.175781 33.902344 C 21.203125 33.910156 21.226562 33.914062 21.253906 33.925781 C 21.425781 33.996094 21.589844 34.089844 21.753906 34.1875 C 21.789062 34.207031 21.828125 34.222656 21.863281 34.242188 C 22.054688 34.371094 22.242188 34.523438 22.410156 34.691406 L 28.511719 40.792969 C 28.859375 41.140625 29.472656 41.140625 29.820312 40.792969 L 45.410156 25.214844 C 45.410156 25.214844 45.410156 25.210938 45.414062 25.210938 L 47.699219 22.929688 C 49.019531 21.605469 51.34375 21.605469 52.667969 22.929688 C 54.035156 24.296875 54.035156 26.527344 52.667969 27.894531 Z M 52.667969 27.898438 " fill-opacity="1" fill-rule="nonzero"/></g><g fill="#f1efe7" fill-opacity="1"><g transform="translate(60.994864, 58.111868)"><g><path d="M 28.25 -34.390625 C 28.28125 -34.554688 28.375 -34.71875 28.53125 -34.875 C 28.6875 -35.03125 28.863281 -35.109375 29.0625 -35.109375 L 31.46875 -35.109375 C 31.632812 -35.109375 31.785156 -35.03125 31.921875 -34.875 C 32.066406 -34.71875 32.140625 -34.554688 32.140625 -34.390625 L 29.46875 -0.71875 C 29.46875 -0.507812 29.390625 -0.335938 29.234375 -0.203125 C 29.085938 -0.0664062 28.910156 0 28.703125 0 L 25.640625 0 C 25.160156 0 24.800781 -0.203125 24.5625 -0.609375 L 17.859375 -12.03125 L 11.15625 -0.609375 C 10.914062 -0.203125 10.554688 0 10.078125 0 L 7.015625 0 C 6.804688 0 6.625 -0.0664062 6.46875 -0.203125 C 6.320312 -0.335938 6.25 -0.507812 6.25 -0.71875 L 3.578125 -34.390625 C 3.546875 -34.554688 3.597656 -34.71875 3.734375 -34.875 C 3.867188 -35.03125 4.039062 -35.109375 4.25 -35.109375 L 6.65625 -35.109375 C 6.851562 -35.109375 7.019531 -35.03125 7.15625 -34.875 C 7.300781 -34.71875 7.390625 -34.554688 7.421875 -34.390625 L 9.671875 -5.171875 L 15.765625 -16.015625 C 16.003906 -16.421875 16.359375 -16.625 16.828125 -16.625 L 18.875 -16.625 C 19.351562 -16.625 19.710938 -16.421875 19.953125 -16.015625 L 26.046875 -5.171875 Z M 28.25 -34.390625 "/></g></g></g><g fill="#f1efe7" fill-opacity="1"><g transform="translate(94.041887, 58.111868)"><g><path d="M 5.46875 -0.71875 L 5.46875 -34.390625 C 5.46875 -34.867188 5.707031 -35.109375 6.1875 -35.109375 L 30.03125 -35.109375 C 30.507812 -35.109375 30.75 -34.867188 30.75 -34.390625 L 30.75 -31.9375 C 30.75 -31.457031 30.507812 -31.21875 30.03125 -31.21875 L 9.3125 -31.21875 L 9.3125 -19.5 L 27.28125 -19.5 C 27.445312 -19.5 27.601562 -19.421875 27.75 -19.265625 C 27.90625 -19.109375 27.984375 -18.945312 27.984375 -18.78125 L 27.984375 -16.328125 C 27.984375 -16.117188 27.90625 -15.945312 27.75 -15.8125 C 27.601562 -15.675781 27.445312 -15.609375 27.28125 -15.609375 L 9.3125 -15.609375 L 9.3125 -3.890625 L 30.03125 -3.890625 C 30.238281 -3.890625 30.410156 -3.8125 30.546875 -3.65625 C 30.679688 -3.5 30.75 -3.335938 30.75 -3.171875 L 30.75 -0.71875 C 30.75 -0.238281 30.507812 0 30.03125 0 L 6.1875 0 C 5.707031 0 5.46875 -0.238281 5.46875 -0.71875 Z M 5.46875 -0.71875 "/></g></g></g><g fill="#f1efe7" fill-opacity="1"><g transform="translate(127.03775, 58.111868)"><g><path d="M 5.46875 -0.71875 L 5.46875 -34.390625 C 5.46875 -34.867188 5.707031 -35.109375 6.1875 -35.109375 L 30.03125 -35.109375 C 30.507812 -35.109375 30.75 -34.867188 30.75 -34.390625 L 30.75 -31.9375 C 30.75 -31.457031 30.507812 -31.21875 30.03125 -31.21875 L 9.3125 -31.21875 L 9.3125 -19.5 L 27.28125 -19.5 C 27.445312 -19.5 27.601562 -19.421875 27.75 -19.265625 C 27.90625 -19.109375 27.984375 -18.945312 27.984375 -18.78125 L 27.984375 -16.328125 C 27.984375 -16.117188 27.90625 -15.945312 27.75 -15.8125 C 27.601562 -15.675781 27.445312 -15.609375 27.28125 -15.609375 L 9.3125 -15.609375 L 9.3125 -3.890625 L 30.03125 -3.890625 C 30.238281 -3.890625 30.410156 -3.8125 30.546875 -3.65625 C 30.679688 -3.5 30.75 -3.335938 30.75 -3.171875 L 30.75 -0.71875 C 30.75 -0.238281 30.507812 0 30.03125 0 L 6.1875 0 C 5.707031 0 5.46875 -0.238281 5.46875 -0.71875 Z M 5.46875 -0.71875 "/></g></g></g><g fill="#f1efe7" fill-opacity="1"><g transform="translate(160.03362, 58.111868)"><g><path d="M 15.921875 -0.71875 L 15.921875 -31.21875 L 5.421875 -31.21875 C 4.941406 -31.21875 4.703125 -31.457031 4.703125 -31.9375 L 4.703125 -34.390625 C 4.703125 -34.867188 4.941406 -35.109375 5.421875 -35.109375 L 30.296875 -35.109375 C 30.773438 -35.109375 31.015625 -34.867188 31.015625 -34.390625 L 31.015625 -31.9375 C 31.015625 -31.457031 30.773438 -31.21875 30.296875 -31.21875 L 19.796875 -31.21875 L 19.796875 -0.71875 C 19.796875 -0.507812 19.71875 -0.335938 19.5625 -0.203125 C 19.414062 -0.0664062 19.257812 0 19.09375 0 L 16.625 0 C 16.15625 0 15.921875 -0.238281 15.921875 -0.71875 Z M 15.921875 -0.71875 "/></g></g></g><g fill="#f1efe7" fill-opacity="1"><g transform="translate(193.080637, 58.111868)"><g><path d="M 22.625 -35.109375 C 22.820312 -35.109375 23.015625 -35.035156 23.203125 -34.890625 C 23.390625 -34.753906 23.519531 -34.601562 23.59375 -34.4375 L 30.703125 -16.625 C 30.773438 -16.457031 30.832031 -16.238281 30.875 -15.96875 C 30.925781 -15.695312 30.953125 -15.457031 30.953125 -15.25 L 30.953125 -0.71875 C 30.953125 -0.238281 30.71875 0 30.25 0 L 27.84375 0 C 27.363281 0 27.125 -0.238281 27.125 -0.71875 L 27.125 -10.1875 L 8.546875 -10.1875 L 8.546875 -0.71875 C 8.546875 -0.238281 8.304688 0 7.828125 0 L 5.375 0 C 4.894531 0 4.65625 -0.238281 4.65625 -0.71875 L 4.65625 -15.25 C 4.65625 -15.457031 4.679688 -15.695312 4.734375 -15.96875 C 4.785156 -16.238281 4.84375 -16.457031 4.90625 -16.625 L 12.03125 -34.4375 C 12.09375 -34.601562 12.222656 -34.753906 12.421875 -34.890625 C 12.628906 -35.035156 12.820312 -35.109375 13 -35.109375 Z M 27.125 -14.015625 L 27.125 -15.25 L 20.71875 -31.21875 L 14.9375 -31.21875 L 8.546875 -15.25 L 8.546875 -14.015625 Z M 27.125 -14.015625 "/></g></g></g><g fill="#f1efe7" fill-opacity="1"><g transform="translate(226.127654, 58.111868)"><g><path d="M 4.65625 -7.46875 L 4.65625 -9.828125 C 4.65625 -9.992188 4.726562 -10.15625 4.875 -10.3125 C 5.03125 -10.46875 5.195312 -10.546875 5.375 -10.546875 L 7.828125 -10.546875 C 8.035156 -10.546875 8.207031 -10.46875 8.34375 -10.3125 C 8.476562 -10.15625 8.546875 -9.992188 8.546875 -9.828125 L 8.546875 -7.46875 C 8.546875 -6.476562 8.894531 -5.632812 9.59375 -4.9375 C 10.289062 -4.238281 11.132812 -3.890625 12.125 -3.890625 L 23.53125 -3.890625 C 24.519531 -3.890625 25.363281 -4.238281 26.0625 -4.9375 C 26.769531 -5.632812 27.125 -6.476562 27.125 -7.46875 L 27.125 -12.03125 C 27.125 -13.019531 26.769531 -13.863281 26.0625 -14.5625 C 25.363281 -15.257812 24.519531 -15.609375 23.53125 -15.609375 L 12.125 -15.609375 C 11.101562 -15.609375 10.140625 -15.800781 9.234375 -16.1875 C 8.328125 -16.582031 7.53125 -17.113281 6.84375 -17.78125 C 6.164062 -18.445312 5.628906 -19.238281 5.234375 -20.15625 C 4.847656 -21.082031 4.65625 -22.054688 4.65625 -23.078125 L 4.65625 -27.625 C 4.65625 -28.65625 4.847656 -29.617188 5.234375 -30.515625 C 5.628906 -31.421875 6.164062 -32.210938 6.84375 -32.890625 C 7.53125 -33.578125 8.328125 -34.117188 9.234375 -34.515625 C 10.140625 -34.910156 11.101562 -35.109375 12.125 -35.109375 L 23.53125 -35.109375 C 24.5625 -35.109375 25.523438 -34.910156 26.421875 -34.515625 C 27.328125 -34.117188 28.117188 -33.578125 28.796875 -32.890625 C 29.484375 -32.210938 30.023438 -31.421875 30.421875 -30.515625 C 30.816406 -29.617188 31.015625 -28.65625 31.015625 -27.625 L 31.015625 -25.28125 C 31.015625 -24.800781 30.773438 -24.5625 30.296875 -24.5625 L 27.84375 -24.5625 C 27.363281 -24.5625 27.125 -24.800781 27.125 -25.28125 L 27.125 -27.625 C 27.125 -28.613281 26.769531 -29.457031 26.0625 -30.15625 C 25.363281 -30.863281 24.519531 -31.21875 23.53125 -31.21875 L 12.125 -31.21875 C 11.132812 -31.21875 10.289062 -30.863281 9.59375 -30.15625 C 8.894531 -29.457031 8.546875 -28.613281 8.546875 -27.625 L 8.546875 -23.078125 C 8.546875 -22.085938 8.894531 -21.242188 9.59375 -20.546875 C 10.289062 -19.847656 11.132812 -19.5 12.125 -19.5 L 23.53125 -19.5 C 24.5625 -19.5 25.523438 -19.300781 26.421875 -18.90625 C 27.328125 -18.507812 28.117188 -17.96875 28.796875 -17.28125 C 29.484375 -16.601562 30.023438 -15.8125 30.421875 -14.90625 C 30.816406 -14.007812 31.015625 -13.050781 31.015625 -12.03125 L 31.015625 -7.46875 C 31.015625 -6.445312 30.816406 -5.472656 30.421875 -4.546875 C 30.023438 -3.628906 29.484375 -2.835938 28.796875 -2.171875 C 28.117188 -1.503906 27.328125 -0.972656 26.421875 -0.578125 C 25.523438 -0.191406 24.5625 0 23.53125 0 L 12.125 0 C 11.101562 0 10.140625 -0.191406 9.234375 -0.578125 C 8.328125 -0.972656 7.53125 -1.503906 6.84375 -2.171875 C 6.164062 -2.835938 5.628906 -3.628906 5.234375 -4.546875 C 4.847656 -5.472656 4.65625 -6.445312 4.65625 -7.46875 Z M 4.65625 -7.46875 "/></g></g></g><g fill="#f1efe7" fill-opacity="1"><g transform="translate(259.174671, 58.111868)"><g><path d="M 26.15625 -0.609375 L 17.703125 -15.609375 L 8.859375 -15.609375 L 8.859375 -0.71875 C 8.859375 -0.238281 8.617188 0 8.140625 0 L 5.6875 0 C 5.507812 0 5.34375 -0.0664062 5.1875 -0.203125 C 5.039062 -0.335938 4.96875 -0.507812 4.96875 -0.71875 L 4.96875 -34.390625 C 4.96875 -34.585938 5.039062 -34.753906 5.1875 -34.890625 C 5.34375 -35.035156 5.507812 -35.109375 5.6875 -35.109375 L 8.140625 -35.109375 C 8.617188 -35.109375 8.859375 -34.867188 8.859375 -34.390625 L 8.859375 -19.5 L 17.703125 -19.5 L 26.15625 -34.484375 C 26.25 -34.660156 26.398438 -34.804688 26.609375 -34.921875 C 26.816406 -35.046875 27.019531 -35.109375 27.21875 -35.109375 L 30.25 -35.109375 C 30.445312 -35.109375 30.578125 -35.046875 30.640625 -34.921875 C 30.710938 -34.804688 30.695312 -34.660156 30.59375 -34.484375 L 21.078125 -17.546875 L 30.59375 -0.609375 C 30.832031 -0.203125 30.71875 0 30.25 0 L 27.21875 0 C 26.738281 0 26.382812 -0.203125 26.15625 -0.609375 Z M 26.15625 -0.609375 "/></g></g></g></svg>